<svg xmlns="http://www.w3.org/2000/svg"  viewBox="0 0 216.761 47.71"><g transform="translate(-297.239 -259.333)"><g transform="translate(297.239 259.333)"><path d="M680.443,240.112l-9.227-4.006-4.374-1.9-4.379,1.87-9.425,4.032h-.1v.042l-.02.008.02.052v3.359H680.6v-3.462Zm-18.6,0,4.987-2.132,4.91,2.132Z" transform="translate(-641.093 -216.637)" fill="#982632"/><path d="M657.6,263.28h2.95v8.07a19.484,19.484,0,0,1-.289,3.869,4.6,4.6,0,0,1-1.16,2.253,2.949,2.949,0,0,1-2.237.924,3.587,3.587,0,0,1-2.234-.613,3.838,3.838,0,0,1-1.222-1.776,9.716,9.716,0,0,1-.509-2.887l2.807-.611a7.9,7.9,0,0,0,.109,1.47,1.7,1.7,0,0,0,.352.756.6.6,0,0,0,.482.2.76.76,0,0,0,.719-.574,5.624,5.624,0,0,0,.232-1.924V263.28Z" transform="translate(-641.085 -235.051)" fill="#982632"/><path d="M677.033,263.28h5.5a2.407,2.407,0,0,1,2.111,1.07,4.464,4.464,0,0,1,.739,2.622,4.562,4.562,0,0,1-.524,2.255,2.475,2.475,0,0,1-1.024.992,2.694,2.694,0,0,1,1.5,1.321,5.129,5.129,0,0,1,.483,2.362,5.935,5.935,0,0,1-.342,2.077,3.65,3.65,0,0,1-.941,1.465,2.193,2.193,0,0,1-1.115.481,8.5,8.5,0,0,1-1.32.2h-5.072V263.28ZM680,269.093h1.285a1.112,1.112,0,0,0,.958-.373,1.8,1.8,0,0,0,.267-1.062,1.683,1.683,0,0,0-.267-1.014,1.111,1.111,0,0,0-.941-.361H680v2.81Zm0,5.843h1.5a1.251,1.251,0,0,0,1.069-.416,1.838,1.838,0,0,0,.313-1.126,1.682,1.682,0,0,0-.309-1.06,1.277,1.277,0,0,0-1.08-.4H680v3Z" transform="translate(-656.371 -235.051)" fill="#982632"/><path d="M709.679,263.28h2.93v8.851a11.342,11.342,0,0,1-.263,2.493,6.28,6.28,0,0,1-.824,2.047,3.678,3.678,0,0,1-1.181,1.23,4.052,4.052,0,0,1-2.056.5,8.6,8.6,0,0,1-1.518-.148,2.955,2.955,0,0,1-1.374-.6,4.348,4.348,0,0,1-1.01-1.285,5.822,5.822,0,0,1-.626-1.714,13.474,13.474,0,0,1-.274-2.515V263.28h2.931v9.069a3.518,3.518,0,0,0,.433,1.9,1.4,1.4,0,0,0,2.4.01,3.557,3.557,0,0,0,.433-1.912V263.28Z" transform="translate(-673.127 -235.051)" fill="#982632"/><rect width="27.664" height="3.465" transform="translate(11.789 44.216)" fill="#982632"/><g transform="translate(15.716 0)"><path d="M675.838,205.892a1.418,1.418,0,1,1-1.48,1.413A1.445,1.445,0,0,1,675.838,205.892Z" transform="translate(-670.393 -198.699)" fill="#9a7e53"/><path d="M679.508,188.243a9.723,9.723,0,0,1,9.724,9.725c0,.058,0,.12,0,.179v8.1l-3.41-1.426v-6.831H685.8c0-.007,0-.012,0-.018a6.287,6.287,0,0,0-10.379-4.772l-2.435-2.343v-.1A9.7,9.7,0,0,1,679.508,188.243Z" transform="translate(-669.522 -187.519)" fill="#9a7e53"/><path d="M663.54,186.268l3.411,3.281.05.052v13.8H663.54Z" transform="translate(-663.54 -186.268)" fill="#9a7e53"/><path d="M682.215,211.373a1.4,1.4,0,0,1,1.824-.648,1.3,1.3,0,0,1,.793,1.7l-2.765,6.394h-3.088Z" transform="translate(-673.319 -201.688)" fill="#9a7e53"/></g><path d="M738.971,234.814h0v-.006a1.732,1.732,0,1,0-3.463,0c0,.01,0,.021,0,.032v28.789h3.462Z" transform="translate(-693.412 -215.918)" fill="#9a7e53"/><path d="M640.1,235.016h0v-.009a1.731,1.731,0,1,0-3.463,0v28.747H640.1Z" transform="translate(-630.78 -216.043)" fill="#9a7e53"/><path d="M624.127,230.994v-6.427h.006a4.2,4.2,0,0,1,8.4,0h.006v1.6l3.466-1.445v-.169H636a7.664,7.664,0,0,0-15.328.01h0V253.4h3.462Z" transform="translate(-620.665 -205.685)" fill="#9a7e53"/><path d="M734.536,224.556h-.009a7.663,7.663,0,0,0-15.327.01h0v.117l3.464,1.509v-1.625h0a4.2,4.2,0,0,1,8.4,0h0V253.4h3.464Z" transform="translate(-683.08 -205.685)" fill="#9a7e53"/></g><g transform="translate(357.08 272.111)"><path d="M201.45,823.59a4.791,4.791,0,0,0,3.258,2.326,56.557,56.557,0,0,0,6.687.483v3.813l-.483-.037a72.2,72.2,0,0,1-7.243-.416q-4.021-.588-5.439-2.009-1.425,1.421-5.547,2.009a70.509,70.509,0,0,1-7.17.416l-.419.037V826.4a57.834,57.834,0,0,0,6.69-.415,4.583,4.583,0,0,0,3.223-2.393h-9.913V820h26.3v3.59Zm3.758,16.223a7.768,7.768,0,0,1,1.946,5.235,7.652,7.652,0,0,1-2.809,6.033,9.107,9.107,0,0,1-6.1,2.254A9.386,9.386,0,0,1,192,851.08a7.623,7.623,0,0,1-2.771-6.033,7.791,7.791,0,0,1,1.934-5.235,9.4,9.4,0,0,1,4.632-2.843V835.3H184.121V831.5h28.25V835.3H200.624V837A9.564,9.564,0,0,1,205.208,839.813Zm-10.051,2.212a4.142,4.142,0,0,0,0,5.995,4.273,4.273,0,0,0,2.98,1.178,4.228,4.228,0,0,0,2.947-1.178,4.068,4.068,0,0,0,0-5.995,4.3,4.3,0,0,0-2.947-1.145A4.344,4.344,0,0,0,195.157,842.025Z" transform="translate(-184.121 -818.402)" fill="#982632"/><path d="M270.312,830.672a2.952,2.952,0,0,1-.591,2.07,2.349,2.349,0,0,1-1.662.518H246.226a2.277,2.277,0,0,1-1.663-.518,3.092,3.092,0,0,1-.555-2.07V820h4.646v2.7h17.015V820h4.644Zm-21.659-1.693h17.015v-2.431H248.654Zm6.13,22.443V840.3H243.038v-4.316h28.244V840.3H259.464v11.124Z" transform="translate(-211.264 -818.402)" fill="#982632"/><path d="M310.084,838.794h10.778V820h4.388v9.143h1.925V820h4.5v31.309h-4.5V833.533H325.25v17.791h-4.388V843.11H307.621a2.347,2.347,0,0,1-1.7-.519,3.114,3.114,0,0,1-.553-2.079V820h13.242v4.316h-8.526Z" transform="translate(-239.979 -818.402)" fill="#982632"/><path d="M379.253,823.795a6.276,6.276,0,0,1,.69,1.418,5.241,5.241,0,0,1,.278,1.665,6.782,6.782,0,0,1-2.392,5.3,7.657,7.657,0,0,1-5.267,1.973,7.832,7.832,0,0,1-5.335-1.973,6.743,6.743,0,0,1-2.427-5.3,6.48,6.48,0,0,1,.21-1.628,7.328,7.328,0,0,1,.724-1.455h-1.9V819.74h6.23v-2.7h5.007v2.7h6.122v4.054Zm-8.906.887a2.947,2.947,0,0,0-.936,2.217,2.867,2.867,0,0,0,.936,2.148,2.956,2.956,0,0,0,2.217.935,2.993,2.993,0,0,0,2.186-.935,2.875,2.875,0,0,0,.936-2.148,2.955,2.955,0,0,0-.936-2.217,3.116,3.116,0,0,0-2.186-.867A3.077,3.077,0,0,0,370.347,824.682Zm19.852,2.905v5.65h-4.68V818.63h4.68v4.641h3.775v4.317Zm0,22.349h-4.68V839.886H365.457V835.57H390.2Z" transform="translate(-266.913 -817.037)" fill="#982632"/><path d="M450.965,845.425v4.317H422.727v-4.317h4.436v-13.9h4.68v13.9h3.267v-13.9h4.679v13.9H444V824.316H424.385V820h24.293v25.425Z" transform="translate(-294.045 -818.402)" fill="#982632"/></g></g></svg>